{
  "accessors": [
    {
      "bufferView": 2,
      "componentType": 5126,
      "count": 262,
      "max": [
        46.98615646362305,
        91.21117401123047,
        34.03265380859375
      ],
      "min": [
        -46.970481872558594,
        -43.29978942871094,
        -37.96946334838867
      ],
      "type": "VEC3"
    },
    {
      "bufferView": 2,
      "byteOffset": 3144,
      "componentType": 5126,
      "count": 262,
      "max": [
        0.9697420001029968,
        0.9651063680648804,
        0.9976682662963867
      ],
      "min": [
        -0.980291485786438,
        -0.9634954929351807,
        -0.9956278800964355
      ],
      "type": "VEC3"
    },
    {
      "bufferView": 1,
      "componentType": 5126,
      "count": 262,
      "max": [
        0.9956468343734741,
        0.9931601881980896
      ],
      "min": [
        0.008183419704437256,
        0.00594213604927063
      ],
      "type": "VEC2"
    },
    {
      "bufferView": 0,
      "componentType": 5125,
      "count": 1020,
      "type": "SCALAR"
    },
    {
      "bufferView": 2,
      "byteOffset": 6288,
      "componentType": 5126,
      "count": 158,
      "max": [
        54.319942474365234,
        238.37069702148438,
        22.92992401123047
      ],
      "min": [
        -61.930030822753906,
        -9.281176567077637,
        -93.32005310058594
      ],
      "type": "VEC3"
    },
    {
      "bufferView": 2,
      "byteOffset": 8184,
      "componentType": 5126,
      "count": 158,
      "max": [
        1.0,
        0.7657409906387329,
        1.0
      ],
      "min": [
        -1.0,
        -0.630260169506073,
        -1.0
      ],
      "type": "VEC3"
    },
    {
      "bufferView": 1,
      "byteOffset": 2096,
      "componentType": 5126,
      "count": 158,
      "max": [
        0.9898046851158142,
        0.995018720626831
      ],
      "min": [
        0.00179368257522583,
        0.18484419584274292
      ],
      "type": "VEC2"
    },
    {
      "bufferView": 0,
      "byteOffset": 4080,
      "componentType": 5125,
      "count": 366,
      "type": "SCALAR"
    }
  ],
  "asset": {
    "extras": {
      "author": "Jorma Rysky (Joona Venäläinen) (https://sketchfab.com/Rysky)",
      "license": "CC-BY-4.0 (http://creativecommons.org/licenses/by/4.0/)",
      "source": "https://sketchfab.com/3d-models/low-poly-skeleton-in-cage-c94f2b1b521b42c6ae778499d7086604",
      "title": "Low Poly Skeleton in Cage"
    },
    "generator": "Sketchfab-14.69.0",
    "version": "2.0"
  },
  "bufferViews": [
    {
      "buffer": 0,
      "byteLength": 5544,
      "name": "floatBufferViews",
      "target": 34963
    },
    {
      "buffer": 0,
      "byteLength": 3360,
      "byteOffset": 5544,
      "byteStride": 8,
      "name": "floatBufferViews",
      "target": 34962
    },
    {
      "buffer": 0,
      "byteLength": 10080,
      "byteOffset": 8904,
      "byteStride": 12,
      "name": "floatBufferViews",
      "target": 34962
    }
  ],
  "buffers": [
    {
      "byteLength": 18984,
      "uri": "ltf.bin"
    }
  ],
  "extensionsUsed": [
    "KHR_materials_specular"
  ],
  "images": [
    {
      "uri": "textures/Circle.002__0_baseColor.png"
    },
    {
      "uri": "textures/Material.001_baseColor.png"
    }
  ],
  "materials": [
    {
      "doubleSided": true,
      "extensions": {
        "KHR_materials_specular": {
          "specularColorFactor": [
            1.0,
            1.0,
            1.0
          ],
          "specularFactor": 0.0
        }
      },
      "name": "Circle.002__0",
      "pbrMetallicRoughness": {
        "baseColorTexture": {
          "index": 0
        },
        "metallicFactor": 0.0,
        "roughnessFactor": 0.0
      }
    },
    {
      "doubleSided": true,
      "extensions": {
        "KHR_materials_specular": {
          "specularColorFactor": [
            1.0,
            1.0,
            1.0
          ],
          "specularFactor": 0.0
        }
      },
      "name": "Material.001",
      "pbrMetallicRoughness": {
        "baseColorTexture": {
          "index": 1
        },
        "metallicFactor": 0.0,
        "roughnessFactor": 0.8239417257
      }
    }
  ],
  "meshes": [
    {
      "name": "TextureAtlas_mergedObject.005_Material.001_0",
      "primitives": [
        {
          "attributes": {
            "NORMAL": 1,
            "POSITION": 0,
            "TEXCOORD_0": 2
          },
          "indices": 3,
          "material": 1,
          "mode": 4
        }
      ]
    },
    {
      "name": "Circle.002__0",
      "primitives": [
        {
          "attributes": {
            "NORMAL": 5,
            "POSITION": 4,
            "TEXCOORD_0": 6
          },
          "indices": 7,
          "material": 0,
          "mode": 4
        }
      ]
    }
  ],
  "nodes": [
    {
      "children": [
        1
      ],
      "matrix": [
        0.010164051316678524,
        0.0,
        0.0,
        0.0,
        0.0,
        2.256872759049627e-18,
        -0.010164051316678524,
        0.0,
        0.0,
        0.010164051316678524,
        2.256872759049627e-18,
        0.0,
        0.0,
        0.0,
        0.0,
        1.0
      ],
      "name": "Sketchfab_model"
    },
    {
      "children": [
        2
      ],
      "matrix": [
        1.0,
        0.0,
        0.0,
        0.0,
        0.0,
        0.0,
        1.0,
        0.0,
        0.0,
        -1.0,
        0.0,
        0.0,
        0.0,
        0.0,
        0.0,
        1.0
      ],
      "name": "f534121965c9416a9a3cbb028ef53230.fbx"
    },
    {
      "children": [
        3,
        5
      ],
      "name": "RootNode"
    },
    {
      "children": [
        4
      ],
      "name": "TextureAtlas_mergedObject.005"
    },
    {
      "mesh": 0,
      "name": "TextureAtlas_mergedObject.005_Material.001_0"
    },
    {
      "children": [
        6
      ],
      "name": "Circle.002"
    },
    {
      "mesh": 1,
      "name": "Circle.002__0"
    }
  ],
  "samplers": [
    {
      "magFilter": 9728,
      "minFilter": 9728,
      "wrapS": 10497,
      "wrapT": 10497
    }
  ],
  "scene": 0,
  "scenes": [
    {
      "name": "Sketchfab_Scene",
      "nodes": [
        0
      ]
    }
  ],
  "textures": [
    {
      "sampler": 0,
      "source": 0
    },
    {
      "sampler": 0,
      "source": 1
    }
  ]
}
