<?xml version="1.0" standalone="no"?>
<!DOCTYPE svg PUBLIC "-//W3C//DTD SVG 20010904//EN"
 "http://www.w3.org/TR/2001/REC-SVG-20010904/DTD/svg10.dtd">
<svg version="1.0" xmlns="http://www.w3.org/2000/svg"
 width="1145.000000pt" height="902.000000pt" viewBox="0 0 1145.000000 902.000000"
 preserveAspectRatio="xMidYMid meet">
<metadata>
Created by potrace 1.16, written by Peter Selinger 2001-2019
</metadata>
<g transform="translate(0.000000,902.000000) scale(0.100000,-0.100000)"
fill="#000000" stroke="none">
<path d="M880 8995 c-19 -13 -39 -24 -45 -25 -45 -4 -125 -137 -133 -223 -3
-36 -13 -57 -41 -90 -49 -57 -71 -92 -71 -116 0 -31 43 -54 90 -49 22 2 40 0
40 -4 0 -5 7 -8 15 -8 9 0 18 -6 21 -14 3 -8 24 -24 47 -36 23 -12 47 -28 54
-37 6 -8 16 -12 22 -9 6 4 17 -6 25 -22 24 -47 41 -55 127 -59 65 -2 90 -8
126 -29 44 -26 44 -27 43 -78 -3 -89 -4 -85 38 -79 20 3 39 9 42 12 3 3 25 17
50 30 25 14 48 29 52 35 13 18 5 126 -9 138 -18 15 -16 48 3 70 16 17 18 17
40 -8 13 -14 24 -33 24 -43 0 -14 12 -20 53 -27 l52 -9 3 -45 c2 -32 9 -49 22
-58 12 -7 20 -8 20 -2 0 5 -4 10 -10 10 -5 0 -10 17 -10 38 0 34 4 39 39 54
28 12 54 15 95 11 31 -3 56 -10 56 -14 0 -5 18 -9 40 -9 22 0 40 -3 40 -7 0
-3 -14 -18 -31 -33 -29 -24 -31 -28 -19 -51 34 -66 78 -86 116 -51 11 10 31
22 46 25 14 4 34 10 43 14 16 5 17 2 12 -28 -4 -19 -2 -41 3 -49 14 -22 110
13 151 56 18 19 37 34 42 34 6 0 28 9 51 19 23 11 71 33 107 49 72 33 125 73
134 101 5 18 115 78 193 105 44 16 95 48 122 77 95 102 266 202 365 214 33 4
74 12 92 18 25 8 43 7 83 -6 67 -22 234 -23 270 -2 14 8 40 14 59 15 19 0 66
15 105 34 93 44 198 66 318 66 107 0 155 -8 268 -47 128 -44 139 -49 168 -76
16 -15 35 -27 43 -27 7 0 40 -14 72 -30 52 -26 61 -28 74 -15 8 8 21 15 29 15
28 0 13 22 -26 37 -22 9 -37 19 -35 23 7 11 -40 40 -63 40 -22 0 -72 22 -72
33 0 4 -7 7 -15 7 -8 0 -15 6 -15 14 0 7 -19 21 -42 29 -76 29 -172 57 -196
57 -13 0 -37 7 -55 17 -18 9 -63 21 -102 26 -41 6 -505 11 -1102 14 l-1033 3
0 -25 c0 -14 -5 -25 -10 -25 -6 0 -15 -11 -20 -25 -9 -24 -50 -37 -50 -15 0 6
-10 10 -23 10 -13 0 -29 6 -36 13 -11 10 -14 10 -18 0 -3 -8 -21 -13 -43 -13
-38 0 -39 0 -42 -42 -3 -41 -5 -43 -40 -49 -21 -3 -38 -2 -38 3 0 4 -7 8 -16
8 -9 0 -27 8 -40 19 -13 10 -50 24 -84 32 -33 7 -60 17 -60 21 0 4 -9 8 -20 8
-11 0 -20 7 -20 14 0 8 -15 26 -33 40 -31 24 -42 26 -130 26 -88 0 -97 -2 -97
-19 0 -14 10 -21 35 -25 20 -4 50 -20 68 -35 17 -16 41 -31 53 -35 27 -8 41
-39 47 -99 4 -39 1 -49 -13 -57 -43 -23 -69 20 -52 83 14 51 1 58 -103 55 -64
-2 -89 0 -92 10 -12 34 -133 -1 -133 -38 0 -30 -28 -24 -45 11 -15 28 -15 33
-1 54 21 32 20 58 -2 78 -23 21 -19 21 -62 -8z"/>
<path d="M11033 8999 c26 -20 38 -59 17 -59 -5 0 -10 -6 -10 -12 0 -7 -13 -62
-29 -123 -17 -60 -33 -127 -36 -147 -3 -21 -10 -38 -15 -38 -5 0 -14 -24 -20
-54 -6 -30 -20 -78 -31 -108 -22 -59 -33 -92 -85 -283 -44 -158 -51 -199 -34
-193 12 4 39 70 40 98 1 21 35 60 53 60 29 0 53 -139 27 -155 -6 -4 -8 -15 -5
-25 4 -14 -5 -26 -39 -49 -24 -17 -49 -31 -55 -31 -6 0 -11 16 -11 35 0 19 -4
35 -8 35 -15 0 -52 -40 -52 -56 0 -8 -7 -29 -16 -45 -8 -17 -22 -63 -30 -102
-9 -40 -19 -76 -25 -82 -5 -5 -9 -30 -9 -56 0 -26 -5 -49 -10 -51 -6 -2 -12
-19 -14 -38 -3 -41 -20 -85 -35 -95 -6 -3 -11 -13 -11 -22 0 -9 -20 -81 -45
-160 -40 -126 -48 -143 -68 -143 -29 0 -194 34 -347 71 -69 16 -215 50 -325
75 -110 24 -231 51 -268 60 -62 14 -71 14 -93 -1 -13 -8 -24 -25 -24 -38 -1
-12 -7 -35 -14 -52 -9 -21 -9 -38 -3 -55 8 -20 4 -36 -18 -80 -15 -30 -38 -62
-51 -72 -12 -10 -26 -29 -30 -41 -4 -12 -11 -25 -17 -29 -7 -4 -7 -24 2 -61
10 -45 16 -56 37 -61 13 -4 24 -12 24 -19 0 -14 -116 -87 -138 -87 -7 0 -11
-4 -7 -9 3 -5 -3 -12 -14 -16 -11 -3 -39 -24 -63 -45 -41 -38 -89 -54 -84 -27
12 56 16 100 21 219 6 131 5 137 -14 148 -24 12 -51 2 -93 -37 -31 -29 -58
-27 -102 8 -27 22 -28 24 -21 94 3 40 3 75 -2 78 -4 2 -23 2 -41 0 -40 -7
-127 -90 -135 -130 -6 -33 1 -53 18 -53 7 0 15 -7 19 -15 7 -21 43 -19 56 3 9
16 11 16 20 0 6 -9 33 -24 60 -33 28 -9 50 -21 50 -26 0 -5 -4 -9 -9 -9 -5 0
-13 -9 -16 -20 -10 -31 -115 -140 -135 -140 -13 0 -22 18 -38 73 -11 39 -23
89 -27 110 -3 21 -10 35 -16 32 -5 -4 -9 -1 -9 6 0 6 -16 34 -35 60 -19 27
-35 57 -35 67 0 22 -29 84 -44 94 -13 9 -78 10 -100 2 -24 -9 -21 -86 4 -109
11 -10 20 -27 20 -37 0 -32 -38 -92 -74 -118 -41 -29 -44 -36 -16 -45 18 -6
20 -12 14 -43 -10 -65 -14 -72 -39 -72 -19 0 -25 8 -35 50 -6 27 -9 54 -5 59
13 22 -15 84 -54 117 -21 19 -65 68 -96 109 -69 92 -92 98 -124 33 -11 -24
-25 -65 -31 -93 -6 -27 -18 -57 -26 -66 -8 -8 -16 -38 -18 -65 -4 -57 -17 -94
-41 -114 -15 -12 -19 -11 -36 10 -10 14 -19 30 -19 36 0 6 -12 29 -27 50 -40
59 -83 146 -83 169 0 25 -27 59 -59 75 -36 19 -72 -4 -64 -40 6 -34 -11 -46
-39 -28 -26 18 -49 100 -41 150 5 34 3 38 -23 50 -38 16 -81 65 -95 108 -7 19
-21 47 -33 62 -12 15 -37 48 -56 74 -22 29 -50 53 -76 65 -29 12 -56 36 -86
76 -23 32 -51 65 -60 73 -9 8 -31 41 -48 73 -48 91 -57 102 -106 127 -25 13
-54 36 -65 52 -19 27 -176 156 -230 190 -15 9 -57 19 -95 22 -38 3 -82 9 -99
13 -32 9 -115 61 -115 73 0 4 -24 17 -52 29 -107 45 -194 99 -240 149 -57 61
-388 144 -388 96 0 -18 89 -104 149 -144 4 -3 11 -18 15 -34 4 -16 24 -45 44
-66 49 -49 82 -92 82 -106 0 -6 24 -33 53 -60 28 -27 96 -93 150 -147 55 -54
119 -109 143 -121 25 -12 66 -43 92 -68 26 -25 63 -53 82 -63 47 -23 80 -55
80 -76 0 -9 20 -35 45 -57 41 -36 125 -178 125 -211 0 -7 7 -25 15 -42 10 -19
19 -81 26 -170 8 -115 7 -154 -6 -221 -26 -136 -50 -154 -126 -93 -24 19 -48
35 -53 35 -5 0 -23 10 -40 23 -39 30 -117 67 -139 67 -22 0 -22 -25 2 -58 10
-15 22 -38 26 -52 4 -14 18 -47 31 -74 13 -28 24 -56 24 -63 0 -7 11 -47 25
-89 32 -98 32 -124 2 -124 -12 0 -31 6 -42 14 -41 28 -198 116 -209 116 -6 0
-21 16 -34 35 -18 28 -28 35 -55 35 -18 0 -42 7 -53 15 -27 20 -78 20 -70 0 3
-9 17 -64 32 -123 14 -59 39 -145 54 -192 16 -48 25 -89 20 -94 -5 -5 -24 -6
-43 -2 -28 5 -53 26 -116 94 -44 48 -103 115 -131 148 -27 34 -57 64 -65 68
-25 9 -30 -22 -12 -73 9 -25 18 -77 18 -114 1 -63 16 -127 32 -143 4 -4 7 -13
7 -21 0 -17 -34 -17 -49 1 -7 8 -28 17 -48 21 -34 6 -175 75 -198 96 -5 5 -19
9 -32 9 -36 0 -29 -36 12 -62 19 -13 39 -37 45 -54 6 -17 26 -45 45 -64 19
-18 37 -46 40 -61 4 -15 14 -31 23 -34 18 -6 112 -123 124 -153 15 -39 9 -52
-25 -52 -28 0 -45 13 -121 90 -49 50 -92 90 -97 90 -4 0 -11 -4 -14 -10 -10
-16 -28 -12 -59 13 -24 19 -28 28 -22 50 5 22 12 27 36 27 31 0 48 -15 28 -23
-9 -4 -5 -12 12 -26 56 -45 42 23 -19 97 -33 39 -36 41 -53 25 -10 -9 -18 -25
-18 -35 0 -11 -4 -16 -10 -13 -18 11 -60 -42 -60 -77 0 -45 -14 -63 -47 -63
-22 0 -29 -5 -31 -25 -7 -57 -44 -124 -121 -215 -13 -15 -66 -58 -87 -71 -11
-6 -20 -18 -22 -26 -5 -27 60 -8 104 31 23 20 60 49 83 64 23 16 49 41 58 55
18 30 73 82 86 82 5 0 7 8 5 18 -3 20 9 42 23 42 5 0 9 -11 9 -23 0 -13 9 -32
20 -42 15 -14 20 -31 20 -70 0 -48 2 -52 33 -67 20 -10 38 -28 44 -45 5 -15
18 -50 27 -78 10 -27 29 -80 43 -117 41 -110 20 -124 -86 -54 -36 24 -77 47
-91 51 -14 4 -29 11 -35 15 -31 24 -112 60 -136 60 -43 0 -43 -15 2 -62 37
-40 82 -117 84 -145 0 -6 4 -15 8 -19 10 -10 9 -24 -3 -24 -5 0 -21 20 -36 45
-14 25 -31 45 -37 45 -6 0 -18 6 -26 14 -25 22 -108 66 -125 66 -8 0 -37 11
-64 25 -63 32 -145 34 -182 5 -14 -11 -30 -20 -36 -20 -6 0 -34 -29 -61 -65
l-50 -65 10 -52 c5 -29 20 -85 33 -125 24 -70 30 -149 15 -188 -17 -43 5 -88
77 -155 78 -72 118 -89 217 -93 53 -2 61 1 69 19 13 29 61 57 85 49 19 -6 27
-22 66 -145 10 -30 26 -73 36 -95 9 -22 26 -68 37 -102 11 -34 34 -81 50 -105
29 -43 92 -169 92 -186 0 -22 -27 -61 -52 -75 -19 -11 -28 -24 -28 -41 0 -14
-4 -28 -10 -31 -5 -3 -10 -18 -11 -33 0 -41 -52 -77 -107 -76 -25 1 -48 7 -52
14 -12 19 -33 0 -68 -61 -15 -27 -33 -49 -39 -49 -7 0 -13 -5 -13 -10 0 -6
-10 -15 -22 -20 -13 -6 -30 -14 -38 -20 -43 -27 -177 -80 -204 -80 -17 0 -42
7 -54 16 -22 15 -40 21 -94 31 -17 3 -28 12 -28 22 0 9 -9 22 -20 29 -15 9
-20 23 -20 55 0 24 5 48 10 53 12 12 14 60 11 253 -2 148 -12 178 -68 199 -60
22 -69 25 -98 28 -16 3 -45 9 -65 14 -46 13 -150 13 -150 0 0 -5 -9 -10 -20
-10 -11 0 -20 -4 -20 -9 0 -5 -12 -12 -27 -16 -15 -3 -30 -10 -33 -15 -3 -4
-63 -10 -135 -13 -71 -3 -142 -10 -156 -17 -44 -20 -55 -72 -41 -193 15 -134
7 -333 -15 -367 -19 -28 -114 -121 -156 -151 -37 -27 -156 -31 -207 -7 -19 9
-66 24 -105 34 -91 24 -125 46 -125 85 0 16 -5 29 -11 29 -6 0 -26 12 -45 26
-18 14 -41 24 -49 20 -17 -6 -21 -46 -5 -46 6 0 10 -17 10 -37 0 -29 6 -43 26
-58 23 -18 43 -38 131 -132 23 -24 62 -30 79 -13 16 16 49 1 68 -31 9 -16 21
-29 27 -29 5 0 9 -9 9 -20 0 -11 5 -20 10 -20 6 0 10 -9 10 -20 0 -11 -5 -20
-11 -20 -6 0 -9 -6 -6 -14 4 -9 0 -12 -11 -9 -10 2 -26 -4 -37 -15 -16 -14
-30 -18 -67 -14 -40 4 -48 2 -48 -12 0 -10 -9 -16 -25 -16 -32 0 -32 -14 0
-28 15 -7 25 -8 25 -2 0 18 18 10 23 -10 3 -11 17 -22 33 -25 16 -3 36 -10 44
-16 8 -5 22 -12 30 -15 8 -3 34 -15 57 -25 24 -10 46 -19 50 -19 18 0 119 -46
126 -57 4 -7 14 -10 22 -7 10 4 15 0 15 -12 0 -18 40 -44 67 -44 7 0 13 -7 13
-15 0 -14 17 -21 75 -30 128 -18 133 -21 142 -77 3 -18 9 -34 14 -36 4 -2 3
-12 -4 -23 -9 -15 -9 -23 1 -39 24 -39 3 -43 -30 -5 -14 16 -32 25 -52 25 -37
1 -152 31 -183 48 -12 7 -28 12 -35 12 -8 0 -32 9 -53 21 -22 11 -74 32 -115
46 -41 14 -82 31 -90 38 -8 7 -29 16 -46 19 -17 4 -47 18 -65 32 -19 14 -49
32 -67 40 -19 7 -47 25 -63 38 -16 14 -45 28 -64 32 -19 3 -39 12 -46 20 -6 8
-16 14 -21 14 -15 0 -57 38 -152 138 -17 18 -43 40 -59 48 -20 11 -27 22 -27
45 0 32 -25 89 -39 89 -14 0 -23 98 -11 120 6 12 9 28 5 38 -6 20 -59 82 -70
82 -15 0 -145 146 -145 162 0 10 -4 18 -8 18 -8 0 -41 75 -62 142 -6 20 -36
64 -66 98 -32 36 -54 70 -54 84 0 13 -11 44 -25 70 -14 26 -25 63 -25 82 0 19
-11 57 -25 84 -43 86 -71 183 -84 299 l-6 53 -157 4 c-171 4 -220 18 -226 63
-2 12 -16 29 -30 39 -36 23 -49 39 -74 95 -12 26 -25 47 -30 47 -4 0 -8 -2 -8
-4 0 -2 -7 -40 -15 -83 -19 -97 -19 -127 -1 -142 11 -10 21 -9 45 3 16 9 34
16 39 16 5 0 25 -24 45 -53 31 -44 117 -117 139 -117 3 0 17 -9 30 -21 13 -11
47 -31 77 -43 63 -27 166 -123 193 -181 37 -77 51 -100 71 -122 11 -13 18 -25
15 -29 -9 -9 12 -75 31 -95 15 -16 69 -174 75 -219 2 -14 12 -34 44 -85 7 -11
17 -31 23 -45 6 -14 15 -33 21 -43 9 -19 27 -107 32 -160 3 -34 -14 -113 -32
-145 -13 -22 -42 -59 -70 -88 -6 -7 -12 -21 -12 -31 0 -10 -7 -27 -15 -37 -8
-11 -15 -32 -15 -47 0 -15 -5 -31 -11 -35 -12 -7 -9 -34 13 -129 17 -72 32
-101 58 -115 11 -6 20 -18 20 -26 0 -23 54 -14 58 9 2 10 -7 35 -21 55 -42 65
-43 152 -1 199 14 15 40 -48 49 -122 4 -27 18 -74 31 -102 25 -51 44 -75 44
-54 0 19 20 12 44 -14 16 -17 21 -33 18 -55 -5 -35 -12 -38 -30 -10 -22 36
-30 21 -29 -59 0 -60 -5 -91 -22 -135 -22 -52 -29 -59 -106 -106 -148 -89
-182 -144 -168 -270 9 -79 26 -101 43 -53 5 15 14 35 19 43 5 9 12 30 15 47 7
29 54 89 63 79 2 -2 -3 -58 -12 -124 -16 -112 -16 -121 0 -146 18 -28 31 -31
55 -16 25 15 210 202 210 212 0 5 27 45 61 90 55 74 60 83 54 118 -4 21 0 65
9 104 18 77 21 172 6 212 -13 33 -16 202 -4 214 5 5 29 -3 54 -19 25 -15 77
-40 117 -55 45 -17 77 -36 87 -52 9 -13 22 -24 30 -24 15 0 183 -83 271 -135
33 -19 70 -35 82 -35 35 0 117 -34 191 -79 37 -22 91 -45 122 -51 70 -14 171
-50 188 -67 7 -7 20 -13 28 -13 8 0 37 -11 65 -25 27 -14 54 -23 59 -20 6 4
10 1 10 -4 0 -6 15 -11 34 -11 41 0 59 -19 50 -55 -3 -14 -9 -24 -12 -21 -5 6
-23 -24 -66 -109 -33 -65 -36 -168 -6 -252 11 -32 20 -68 20 -81 0 -61 106
-187 194 -231 104 -51 285 -23 371 57 83 76 125 150 125 218 0 69 21 164 37
164 7 0 13 -9 13 -19 0 -11 5 -23 10 -26 6 -3 10 -2 10 3 0 18 45 5 55 -16 5
-12 15 -22 22 -22 8 0 13 -12 13 -29 0 -17 5 -33 10 -36 6 -3 10 -23 10 -43 0
-20 5 -57 11 -81 7 -32 7 -46 -1 -51 -6 -4 -10 -30 -9 -61 2 -57 -16 -115 -44
-147 -9 -10 -20 -33 -23 -50 -5 -23 -14 -34 -30 -38 -13 -3 -26 -14 -29 -24
-8 -26 -57 -66 -117 -94 -29 -14 -75 -43 -102 -66 -45 -37 -52 -40 -111 -40
-56 0 -65 -3 -82 -26 -22 -30 -75 -45 -160 -42 -75 1 -97 -12 -81 -48 10 -22
79 -64 106 -64 7 0 12 -4 12 -10 0 -5 5 -10 10 -10 6 0 34 -17 63 -38 29 -21
84 -48 122 -61 39 -13 98 -36 132 -52 69 -31 145 -49 204 -49 21 0 97 -12 167
-26 70 -15 166 -32 214 -38 47 -7 92 -17 100 -23 12 -10 42 -15 178 -29 30 -3
59 -10 65 -15 15 -15 82 -10 100 8 11 11 40 18 91 21 79 5 88 13 55 49 -13 14
-16 24 -9 31 6 6 -1 13 -22 21 -18 6 -47 26 -64 45 -37 38 -79 47 -207 44 -78
-2 -109 9 -109 38 0 13 -13 18 -33 15 -4 -1 -17 4 -29 10 -11 6 -44 15 -72 19
-28 4 -62 11 -76 15 -14 4 -43 10 -65 12 -22 3 -49 12 -60 19 -11 8 -27 14
-36 14 -22 0 -79 65 -79 91 0 12 7 27 15 33 8 6 19 41 25 83 5 40 17 91 26
115 9 24 19 66 24 95 10 62 16 73 40 73 10 0 39 20 66 45 26 25 51 45 55 45 5
0 15 13 24 30 8 16 28 36 44 44 15 8 34 29 41 45 6 17 23 37 36 46 14 9 24 25
24 38 0 13 13 33 30 47 17 14 30 28 30 33 0 4 18 30 40 58 30 39 40 60 40 88
0 20 4 41 9 47 14 16 61 143 61 167 0 12 -9 41 -19 64 -11 23 -16 44 -13 48 4
3 7 12 7 18 0 7 10 25 21 40 20 25 27 27 97 27 105 0 112 -8 121 -140 2 -36 8
-78 12 -95 5 -16 7 -80 6 -142 l-3 -112 43 -11 c24 -6 50 -13 59 -16 9 -3 23
2 31 10 29 28 52 24 70 -14 10 -19 17 -39 18 -44 0 -20 53 -56 81 -56 17 0 50
-5 75 -11 43 -11 44 -13 44 -50 0 -38 17 -68 63 -108 9 -9 17 -30 17 -48 0
-17 6 -36 14 -40 8 -4 14 -12 14 -16 -1 -28 24 -97 36 -97 8 0 16 -4 18 -9 2
-5 27 -12 57 -15 55 -6 101 -34 101 -63 0 -16 46 -17 107 -3 37 9 46 7 62 -9
10 -10 21 -29 24 -42 8 -33 59 -51 110 -39 46 10 45 9 53 47 6 29 4 31 -27 36
-89 16 -196 40 -215 49 -12 6 -36 7 -53 3 -17 -4 -31 -3 -31 2 0 14 -77 93
-91 93 -22 0 -57 49 -64 89 -6 39 -9 41 -41 41 -24 0 -34 5 -34 15 0 8 9 15
20 15 11 0 20 5 20 10 0 6 5 10 11 10 6 0 8 -7 5 -16 -5 -14 -1 -16 25 -10 19
3 41 0 59 -9 37 -19 80 -20 80 -1 0 8 -23 31 -51 52 -28 20 -56 50 -61 65 -5
16 -22 34 -38 41 -48 21 -68 89 -44 147 8 18 14 56 14 83 0 55 48 171 84 200
63 53 75 64 76 71 0 11 39 47 50 47 6 0 10 7 10 15 0 8 11 22 25 31 18 12 26
28 31 64 4 31 15 57 33 76 23 24 28 38 27 79 -1 64 29 95 95 95 36 0 47 5 76
38 18 20 33 40 33 45 0 13 -38 7 -54 -8 -8 -8 -22 -15 -31 -15 -28 0 -85 29
-85 43 0 28 -41 67 -70 67 -41 0 -60 -10 -60 -31 0 -10 -6 -19 -13 -19 -7 0
-21 -25 -32 -55 -10 -30 -22 -55 -27 -55 -4 0 -8 -11 -8 -25 0 -14 -6 -25 -12
-25 -17 -1 -64 -79 -73 -120 -15 -67 -111 -210 -142 -210 -7 0 -13 -7 -13 -15
0 -8 -6 -16 -12 -16 -7 -1 -60 -4 -118 -8 l-105 -6 -3 -27 c-3 -26 -7 -28 -46
-28 -56 0 -76 22 -76 81 0 60 34 97 42 47 2 -13 8 17 12 65 6 57 5 96 -2 110
-28 60 -39 176 -47 505 -2 106 -7 198 -11 203 -9 16 36 59 62 59 23 0 34 -17
34 -53 0 -25 86 -127 106 -127 8 0 31 -9 51 -20 21 -11 45 -20 55 -20 9 0 19
-4 22 -9 3 -5 15 -11 26 -14 13 -3 18 -1 13 6 -4 6 0 8 9 4 19 -7 76 12 141
47 56 31 67 32 67 9 0 -25 -49 -73 -68 -66 -12 5 -14 2 -9 -11 4 -10 7 -27 7
-39 0 -12 9 -37 20 -55 19 -32 21 -32 45 -16 13 9 34 32 46 53 31 50 60 82 86
92 12 4 25 20 29 34 3 14 10 25 16 25 5 0 7 3 5 8 -9 15 13 145 30 175 14 25
18 60 20 157 1 69 6 154 10 190 8 61 10 65 35 68 22 3 29 -2 34 -23 3 -14 18
-32 32 -39 l26 -14 -2 -143 c-2 -79 1 -157 6 -174 10 -38 53 -61 82 -45 18 10
20 21 20 138 0 167 9 262 25 262 18 0 23 -17 36 -118 22 -164 73 -294 118
-300 43 -7 68 16 76 67 14 103 59 258 105 365 13 32 25 46 39 46 23 0 31 -19
31 -76 0 -25 4 -53 10 -63 5 -10 14 -49 20 -87 18 -115 77 -298 109 -336 15
-20 47 -23 83 -9 18 7 26 4 41 -15 9 -13 13 -25 8 -29 -6 -3 -47 -6 -93 -6
-46 -1 -88 -5 -94 -10 -6 -5 -44 -12 -85 -15 -41 -4 -86 -13 -101 -20 -15 -8
-36 -14 -46 -14 -27 0 -67 -22 -99 -55 -16 -15 -52 -45 -80 -67 -29 -21 -53
-43 -53 -48 0 -6 -9 -10 -20 -10 -12 0 -20 -7 -20 -17 0 -9 -10 -27 -22 -40
l-21 -23 31 0 c18 0 32 -4 32 -10 0 -5 7 -10 15 -10 20 0 38 47 32 83 -5 39
26 32 34 -8 6 -27 6 -26 4 6 l-3 35 37 -6 c24 -4 54 0 91 13 35 12 91 20 156
22 56 2 126 8 156 14 72 15 363 -1 405 -22 22 -12 61 -14 178 -12 83 2 156 4
163 4 20 2 14 41 -10 62 -35 30 -143 79 -174 79 -15 0 -53 6 -83 14 -31 8 -82
20 -113 26 -31 6 -58 15 -60 21 -2 5 -28 10 -58 10 -65 2 -75 6 -59 25 7 8 9
29 5 56 -6 38 -9 82 -7 121 1 6 -2 41 -5 77 -4 44 0 93 11 150 10 47 20 102
22 123 7 55 37 51 52 -7 6 -25 15 -48 21 -51 5 -3 10 -21 10 -38 0 -18 9 -78
20 -135 11 -56 20 -135 20 -175 0 -83 9 -97 57 -97 43 0 78 34 93 88 6 23 15
44 20 47 6 3 10 17 10 31 0 14 5 35 12 47 16 29 28 102 36 212 7 95 17 110 55
83 26 -19 33 -120 13 -198 -14 -54 -14 -65 -2 -79 8 -10 15 -46 18 -93 4 -100
17 -113 63 -68 19 19 35 43 35 53 0 11 14 35 30 54 17 18 30 39 30 45 0 6 13
24 30 39 19 19 32 43 36 68 6 38 25 57 45 45 14 -8 11 -46 -11 -110 -23 -70
-24 -79 -7 -96 29 -30 55 -75 68 -116 21 -70 54 -87 174 -88 55 0 138 -8 185
-16 77 -14 87 -14 110 0 40 24 75 64 101 112 13 25 27 47 30 50 12 11 40 120
35 137 -3 10 -19 27 -36 36 -16 10 -30 22 -30 27 0 4 -27 35 -60 68 l-61 60 2
91 c1 81 3 91 20 91 26 0 39 -31 39 -94 0 -47 4 -57 26 -75 55 -43 85 -19 104
81 7 38 9 83 6 102 -4 18 -1 57 5 86 8 38 8 63 0 93 -6 23 -12 67 -13 97 -3
53 -2 55 23 58 17 2 46 -10 85 -36 115 -77 132 -110 103 -209 -10 -37 -19 -86
-19 -109 0 -23 -9 -78 -20 -123 -23 -91 -20 -117 13 -127 12 -3 42 -19 67 -35
l45 -29 -1 -188 c0 -192 10 -282 40 -339 9 -18 16 -39 16 -48 0 -17 59 -95 73
-95 4 0 7 11 7 25 0 28 27 45 40 25 5 -7 17 -10 30 -7 16 4 23 0 29 -17 5 -12
21 -28 35 -35 19 -10 26 -22 26 -43 0 -18 5 -28 15 -28 8 0 15 -9 15 -19 0
-11 13 -29 30 -41 l29 -21 11 41 c6 23 9 50 6 60 -4 11 -9 29 -12 40 -4 14 -1
20 10 20 12 0 16 10 16 38 0 21 9 48 20 62 11 14 20 31 20 38 0 6 10 12 22 12
12 0 18 3 15 7 -4 3 -2 12 3 18 6 7 12 32 14 56 2 24 10 56 16 71 13 27 7 64
-8 54 -4 -2 -9 7 -10 20 -1 14 -9 39 -18 56 -13 25 -16 50 -11 118 5 90 -2
137 -21 133 -7 -2 -12 6 -12 17 0 13 -7 20 -20 20 -11 0 -20 5 -20 10 0 6 7
10 15 10 8 0 15 6 16 13 1 6 3 43 4 81 6 124 20 166 54 166 18 0 154 -144 188
-199 27 -43 84 -159 109 -218 31 -78 79 -62 109 37 31 107 38 124 51 138 8 7
14 23 14 35 0 12 8 45 19 73 10 28 21 67 25 87 4 19 18 57 33 84 25 46 43 104
46 151 1 12 6 22 10 22 13 0 41 73 38 102 -2 28 16 95 31 113 4 5 8 17 8 26 0
10 4 19 10 21 5 2 15 30 21 63 6 33 18 74 26 90 9 17 20 38 24 47 5 10 14 50
19 90 6 40 17 87 24 103 8 17 19 44 26 60 7 17 16 37 20 45 4 8 17 51 29 95
13 44 26 87 31 95 4 9 11 30 15 48 3 18 10 32 15 32 4 0 11 18 15 39 3 21 19
66 35 100 16 33 32 77 36 96 7 38 18 44 33 18 17 -31 25 -4 13 42 -12 44 -3
89 21 106 4 3 13 39 18 80 6 40 17 85 25 101 8 15 14 34 14 43 0 8 6 15 13 15
15 0 38 65 31 85 -3 7 -1 16 5 20 6 3 11 0 11 -8 0 -8 6 -17 13 -20 11 -4 12
8 5 59 -7 47 -5 70 4 86 7 13 13 39 13 58 0 29 4 36 24 38 13 2 28 -1 34 -7 6
-6 15 -11 19 -11 4 0 8 128 8 284 l0 283 -77 17 c-195 44 -426 105 -436 115
-8 8 -6 26 7 69 38 117 45 140 86 282 23 80 61 208 85 285 23 77 53 174 65
215 12 41 28 93 36 115 8 22 28 87 44 145 17 58 38 126 46 153 14 46 19 65 67
222 80 262 77 245 77 405 l0 150 -222 0 -223 -1 28 -20z m224 -396 c-4 -61
-13 -106 -26 -130 -10 -21 -22 -53 -26 -71 -6 -30 -36 -58 -48 -46 -3 3 -14 1
-25 -5 -17 -9 -22 -6 -33 20 -10 26 -10 37 1 63 13 32 17 70 9 96 -2 8 3 14
11 15 8 0 15 5 16 10 1 17 32 112 43 133 6 11 19 28 28 37 16 16 18 16 36 -6
17 -21 19 -35 14 -116z m-193 38 c9 -16 14 -30 11 -32 -2 -2 -5 -26 -8 -54 -2
-27 -9 -51 -16 -53 -6 -2 -11 -12 -11 -23 0 -10 -7 -19 -15 -19 -8 0 -15 -4
-15 -9 0 -15 -39 -20 -50 -7 -5 7 -8 15 -5 17 2 3 5 23 6 46 2 24 9 45 16 47
7 3 13 17 13 30 0 28 19 76 31 76 4 0 10 -6 12 -12 3 -8 6 -6 6 5 1 24 8 21
25 -12z m10 -521 c12 0 16 -9 16 -33 0 -69 -34 -214 -53 -228 -5 -4 -14 -17
-21 -30 -14 -29 -41 -36 -61 -15 -17 17 -19 37 -6 52 5 5 12 32 15 59 14 114
18 135 27 135 5 0 9 6 9 14 0 8 10 22 21 30 15 10 20 21 15 33 -6 17 -5 17 8
1 7 -10 21 -18 30 -18z m-340 -533 c46 -46 39 -138 -14 -199 -17 -18 -30 -37
-30 -41 0 -5 -10 -7 -22 -5 -36 5 -41 66 -12 152 13 39 24 79 24 89 0 20 35
23 54 4z m190 -3 c10 -27 7 -73 -9 -111 -8 -19 -15 -46 -15 -59 0 -14 -10 -30
-26 -40 -14 -9 -23 -23 -20 -30 8 -20 -17 -46 -37 -38 -21 8 -27 61 -8 74 4 3
13 28 20 55 19 75 31 103 47 109 8 3 14 14 14 24 0 33 23 44 34 16z m-1455
-843 c8 -5 11 -16 8 -25 -4 -9 -3 -16 1 -16 12 0 31 -72 24 -90 -4 -10 -29
-36 -56 -59 -39 -34 -51 -40 -57 -28 -14 24 2 89 23 95 14 3 18 14 18 46 0 46
9 86 19 86 3 0 12 -4 20 -9z m-3113 -2273 c-1 -13 -7 -34 -13 -48 -5 -14 -8
-44 -7 -68 3 -42 -17 -82 -40 -82 -13 0 -35 32 -36 53 0 9 -7 17 -15 17 -16 0
-36 39 -28 53 3 5 11 6 18 3 8 -3 24 10 37 30 12 19 29 32 35 29 7 -2 17 5 23
15 14 27 29 25 26 -2z m342 -298 c2 -85 8 -159 13 -165 5 -5 9 -20 9 -35 -1
-23 -2 -24 -14 -7 -7 9 -18 17 -24 17 -5 0 -12 6 -15 14 -3 7 -18 17 -34 20
-49 13 -71 32 -66 60 3 14 11 31 19 37 8 6 14 23 14 38 0 25 37 143 54 169 4
7 15 12 24 10 15 -3 17 -23 20 -158z m-368 -39 c0 -5 8 -17 17 -27 22 -21 31
-90 18 -131 -5 -18 -13 -33 -16 -33 -3 0 -16 -9 -29 -20 -13 -11 -32 -20 -44
-20 -12 0 -31 -3 -43 -6 -36 -10 -47 26 -33 102 7 35 16 64 20 64 5 0 26 18
47 39 37 38 63 51 63 32z m-810 -516 c0 -8 4 -15 9 -15 12 0 1 -91 -13 -107
-6 -8 -16 -20 -23 -27 -14 -16 -33 -114 -26 -133 3 -7 -2 -16 -11 -19 -9 -3
-16 -18 -16 -33 l-1 -26 -14 25 c-21 38 -28 100 -17 160 6 32 6 62 1 71 -6 11
0 33 17 68 24 46 29 51 60 51 24 0 34 -5 34 -15z m-1012 -91 c17 -3 35 -16 42
-29 10 -19 9 -27 -6 -49 -11 -14 -25 -26 -31 -26 -7 0 -13 -6 -13 -14 0 -21
-36 -30 -111 -28 -53 1 -72 -2 -92 -18 -54 -43 -105 -58 -175 -52 -44 3 -75
11 -91 24 -19 14 -26 16 -32 6 -6 -9 -12 -9 -26 4 -10 8 -42 21 -71 29 -38 9
-65 25 -99 57 l-47 45 29 24 c19 17 34 23 49 18 12 -4 148 -9 302 -11 243 -4
283 -2 294 11 14 16 31 18 78 9z m3457 -179 c198 -25 310 -46 333 -61 26 -17
21 -34 -11 -34 -24 -1 -176 34 -247 56 -30 9 -90 14 -181 13 -75 -1 -146 2
-158 6 -15 5 -21 2 -21 -9 0 -12 -10 -16 -42 -16 l-43 1 35 16 c95 45 163 50
335 28z m-2236 -262 c17 -10 31 -21 31 -25 0 -5 9 -8 19 -8 19 0 36 -16 36
-34 0 -5 21 -15 46 -21 43 -11 94 -47 82 -59 -3 -2 -2 -10 2 -16 5 -8 11 -5
21 7 12 16 13 12 14 -38 0 -40 -5 -63 -19 -80 -10 -13 -20 -30 -22 -38 -4 -11
-25 -13 -92 -12 -73 2 -87 0 -87 -13 0 -23 -21 -19 -52 9 -25 22 -28 30 -28
92 0 42 -5 76 -14 88 -11 17 -46 136 -46 158 0 14 79 6 109 -10z m655 -672
c47 -19 67 -83 30 -98 -8 -3 -11 -9 -8 -14 3 -5 2 -24 -2 -44 -5 -28 -11 -35
-30 -35 -13 0 -24 5 -24 10 0 6 9 10 20 10 11 0 20 5 20 10 0 6 -6 10 -12 10
-7 0 -24 3 -37 7 -22 5 -23 4 -19 -20 4 -21 1 -27 -13 -27 -15 0 -19 8 -19 33
0 17 -6 52 -14 77 -26 87 14 116 108 81z"/>
<path d="M514 7743 c-49 -4 -52 -5 -62 -41 -13 -43 -22 -101 -26 -157 -1 -22
-8 -50 -14 -62 -17 -31 -15 -61 6 -66 15 -3 14 -5 -4 -13 -25 -11 -94 -70 -94
-81 0 -5 -9 -14 -20 -21 -11 -7 -20 -19 -20 -27 0 -8 -3 -15 -7 -15 -9 0 -33
-49 -33 -67 0 -7 -11 -13 -25 -13 -22 0 -25 -4 -25 -40 0 -36 3 -40 25 -40 14
0 25 -4 25 -9 0 -4 -39 -11 -86 -15 -69 -6 -90 -4 -110 8 -13 9 -28 16 -34 16
-16 0 -12 -346 5 -360 15 -13 50 -133 75 -260 4 -25 13 -57 19 -72 6 -16 6
-28 1 -30 -6 -2 -3 -16 5 -32 10 -19 15 -58 15 -117 0 -72 3 -89 15 -89 8 0
15 -7 15 -16 0 -14 3 -14 15 -4 8 7 15 29 15 49 0 21 9 56 20 79 11 22 20 45
20 50 0 12 86 26 101 17 5 -4 14 -17 19 -30 5 -14 20 -24 40 -29 62 -12 85 -7
112 24 27 31 26 40 -4 40 -10 0 -18 6 -18 14 0 21 -59 41 -115 39 -27 -2 -44
0 -37 3 6 3 12 22 12 42 l0 35 26 -23 c20 -20 27 -22 34 -11 6 11 16 12 53 2
60 -15 202 -14 245 1 30 11 35 11 48 -7 8 -10 14 -40 14 -67 0 -38 -3 -48 -16
-48 -9 0 -23 8 -30 18 -21 29 -168 13 -149 -17 2 -5 -4 -20 -15 -34 -11 -14
-20 -28 -20 -31 0 -3 -16 -22 -35 -42 -20 -20 -45 -54 -56 -75 -11 -22 -23
-39 -28 -39 -5 0 -11 -8 -13 -17 -5 -19 -79 -63 -104 -63 -8 0 -23 20 -34 45
-19 45 -42 57 -57 31 -5 -9 -43 -19 -106 -27 l-97 -13 0 -88 c0 -93 8 -108 60
-108 11 0 20 -6 19 -12 -1 -7 -1 -26 0 -43 2 -29 2 -29 16 -11 8 11 15 29 15
41 0 14 10 26 25 33 14 6 25 8 25 4 0 -9 49 -32 67 -32 7 0 13 -7 13 -15 0
-28 66 -18 117 18 27 18 60 39 76 47 15 7 27 17 27 22 0 4 13 8 28 8 16 0 32
3 36 8 4 4 17 7 29 8 12 0 37 4 55 8 29 7 32 6 32 -16 0 -13 -5 -29 -12 -36
-9 -9 -9 -15 -1 -23 9 -9 19 -8 39 5 21 14 25 23 21 46 -7 34 0 42 24 27 12
-7 16 -19 13 -33 -4 -16 1 -23 23 -32 97 -36 123 -59 158 -139 7 -17 23 -34
34 -38 12 -3 21 -11 21 -16 0 -5 18 -9 40 -9 33 0 40 -3 40 -20 0 -11 6 -20
14 -20 17 0 38 24 29 33 -3 4 3 7 14 7 12 0 23 -6 26 -12 3 -10 11 -10 38 1
56 22 130 30 136 14 3 -7 11 -13 19 -13 21 0 93 82 94 106 0 12 11 30 25 40
14 10 40 42 57 69 17 28 40 60 51 72 18 20 19 32 14 115 -9 151 -37 198 -118
198 -27 0 -59 -5 -73 -11 -22 -10 -28 -9 -44 12 -17 20 -17 25 -5 37 7 8 23
12 33 9 16 -4 20 0 20 23 0 19 6 30 17 32 22 4 29 111 8 128 -20 16 -19 160 0
215 8 22 15 52 15 66 0 14 11 46 25 70 14 24 30 55 36 69 26 58 43 87 69 115
15 17 37 47 50 68 12 21 30 46 40 55 20 19 36 102 20 102 -5 0 -10 -3 -10 -8
0 -12 -149 -5 -165 8 -13 10 -12 14 1 27 8 9 13 22 10 30 -3 8 -1 23 4 33 8
16 4 23 -22 42 -18 13 -46 31 -63 38 -16 8 -33 19 -37 25 -11 14 -10 65 1 65
4 0 18 27 30 60 12 33 26 60 32 60 13 0 11 36 -3 48 -7 5 -52 23 -99 39 -64
22 -91 27 -108 20 -11 -6 -21 -16 -21 -23 0 -7 -18 -15 -40 -19 -22 -4 -40
-11 -40 -16 0 -5 -7 -9 -15 -9 -8 0 -15 4 -15 10 0 12 -55 41 -64 33 -3 -3
-23 1 -43 10 -52 22 -171 30 -232 15 -44 -10 -57 -9 -87 5 -19 9 -49 16 -67
15 -18 -1 -55 -3 -83 -5z m301 -323 c8 0 14 -19 17 -52 5 -47 10 -56 54 -95
27 -23 55 -43 62 -43 6 0 12 -4 12 -9 0 -5 18 -11 40 -15 22 -3 40 -11 40 -16
0 -6 14 -10 32 -10 20 0 42 -9 57 -24 15 -13 51 -31 81 -40 60 -20 111 -62 85
-72 -8 -4 -15 -14 -15 -23 0 -24 -67 -45 -117 -38 -40 6 -115 -14 -121 -33 -2
-5 -8 -10 -14 -10 -5 0 -21 -9 -35 -19 -13 -11 -31 -17 -38 -14 -9 3 -19 -5
-26 -21 -7 -14 -18 -27 -26 -27 -7 -1 -18 -2 -23 -3 -14 -1 -30 -27 -30 -49 0
-10 -13 -32 -28 -48 l-28 -30 -69 16 c-37 8 -76 13 -85 10 -10 -3 -30 0 -46 6
-16 7 -35 13 -42 15 -21 4 -24 9 -32 56 -11 54 -15 281 -7 295 4 6 22 14 41
17 19 4 39 13 46 21 7 8 20 15 30 15 16 0 18 11 19 97 0 53 5 101 10 106 5 5
30 12 55 14 27 3 52 13 63 25 10 11 19 15 21 9 2 -6 9 -11 17 -11z m558 -112
c29 -31 37 -82 14 -91 -18 -7 -129 22 -145 37 -16 15 -6 43 19 57 11 5 19 16
19 23 0 23 63 6 93 -26z m-226 -660 c6 -7 13 -25 17 -40 3 -16 13 -28 21 -28
8 0 23 -9 32 -20 20 -24 45 -100 32 -100 -5 0 -9 -18 -9 -40 0 -33 3 -40 20
-40 15 0 20 -7 20 -28 0 -15 5 -33 12 -40 9 -9 0 -12 -40 -12 -44 0 -52 3 -52
19 0 10 -7 21 -15 25 -8 3 -15 12 -15 21 0 9 -9 15 -24 15 -20 0 -25 6 -30 45
-4 24 -10 44 -14 43 -4 -1 -20 2 -36 7 -16 4 -42 3 -61 -2 -18 -6 -37 -7 -42
-3 -4 3 -43 15 -85 25 -71 17 -78 21 -79 45 -4 90 14 110 98 110 35 0 63 -4
63 -9 0 -9 89 -3 135 9 42 11 41 11 52 -2z m176 -694 c59 -50 108 -134 77
-134 -19 0 -135 33 -146 42 -7 5 -24 27 -40 49 -27 40 -28 42 -9 55 30 23 83
17 118 -12z"/>
<path d="M0 7290 c0 -61 4 -85 16 -97 11 -12 18 -13 26 -5 8 8 15 9 25 1 8 -7
13 -8 13 -1 0 5 13 12 30 16 34 6 36 15 14 83 -16 51 -21 54 -101 78 -23 6
-23 5 -23 -75z"/>
<path d="M2058 7100 c-31 -30 -20 -109 48 -339 9 -30 24 23 25 89 1 55 -32
227 -49 255 -5 9 -12 8 -24 -5z"/>
<path d="M2205 6550 c-3 -5 -1 -10 6 -10 16 0 1 -15 -14 -15 -7 0 -11 -11 -10
-23 2 -16 -3 -22 -16 -22 -26 0 -38 -17 -62 -91 -31 -91 -35 -236 -9 -305 17
-47 141 -225 161 -232 5 -2 9 -8 9 -13 0 -25 51 -74 105 -101 33 -16 76 -38
95 -48 40 -20 51 -23 98 -21 36 1 36 21 0 21 -61 0 -158 107 -158 174 0 35
-42 87 -55 67 -9 -15 -18 -61 -18 -88 1 -18 -5 -23 -23 -23 -21 0 -32 17 -86
127 l-63 127 0 90 c0 50 4 101 8 114 7 17 5 22 -9 22 -28 0 -11 65 25 99 17
16 31 38 31 49 0 12 5 24 10 27 6 3 10 17 10 31 0 29 -25 60 -35 44z"/>
<path d="M2685 6275 c-144 -99 -201 -216 -167 -350 8 -33 23 -72 34 -87 10
-15 25 -43 33 -62 9 -20 22 -36 30 -36 8 0 15 -4 15 -10 0 -5 5 -10 10 -10 16
0 12 18 -9 37 -27 25 -41 66 -41 121 0 26 -7 67 -16 91 -17 51 -9 85 40 166
34 57 43 65 73 65 29 0 33 -9 24 -50 -7 -31 3 -76 19 -90 10 -8 29 -63 32 -90
2 -16 13 -30 31 -38 28 -14 34 -26 17 -37 -21 -13 -8 -33 26 -40 20 -3 48 -17
63 -31 14 -13 46 -33 70 -45 24 -11 49 -26 56 -32 6 -7 43 -22 81 -34 157 -50
191 -61 225 -76 58 -26 69 -6 23 40 -64 65 -94 101 -94 111 0 5 -13 28 -30 50
-16 23 -30 47 -30 54 0 6 -8 20 -17 30 -10 11 -17 39 -19 74 -2 31 -6 59 -9
63 -11 10 -47 -42 -42 -61 6 -23 -2 -23 -19 0 -12 16 -15 15 -39 -13 -22 -25
-25 -35 -19 -70 7 -42 27 -76 63 -109 12 -11 21 -22 21 -26 0 -15 -39 -18 -57
-4 -10 7 -26 14 -36 14 -10 0 -20 7 -23 15 -4 8 -15 15 -25 15 -10 0 -19 4
-19 9 0 4 -18 20 -39 34 -53 35 -91 87 -102 139 -5 24 -21 66 -35 94 -19 39
-25 69 -27 128 -2 87 -10 93 -72 51z"/>
<path d="M3396 6228 c-21 -93 -11 -126 42 -142 17 -5 32 -13 32 -17 0 -5 6 -9
13 -9 8 0 19 -10 26 -23 15 -28 68 -60 77 -46 3 6 -5 22 -17 36 -13 14 -37 40
-54 57 -16 18 -35 43 -42 57 -21 43 -40 93 -50 129 -10 35 -10 34 -27 -42z"/>
<path d="M4928 6228 c-6 -13 -14 -63 -16 -111 -4 -70 -1 -96 13 -128 10 -21
21 -39 25 -39 15 0 40 81 46 148 8 84 -8 152 -36 152 -11 0 -25 -10 -32 -22z"/>
<path d="M4716 6190 c-3 -17 -21 -55 -41 -85 -19 -31 -35 -60 -35 -65 0 -5
-10 -20 -22 -33 -13 -14 -32 -35 -43 -48 -41 -49 -104 -75 -120 -49 -11 17
-30 11 -65 -22 -19 -18 -46 -42 -60 -53 -14 -11 -34 -37 -45 -58 -11 -21 -32
-50 -47 -65 -15 -15 -28 -35 -28 -44 0 -25 -17 -31 -23 -8 -3 11 -2 22 2 24 4
3 13 34 21 70 7 36 17 66 20 66 4 0 12 18 19 41 7 22 20 48 30 58 20 20 65
110 59 117 -9 9 -54 -35 -83 -80 -16 -25 -32 -46 -36 -46 -16 0 -60 -161 -59
-217 2 -97 11 -161 25 -167 20 -7 55 5 55 19 0 6 13 32 30 56 16 24 30 52 30
61 0 30 133 153 199 184 33 16 60 35 60 42 2 27 21 0 21 -29 0 -16 -4 -29 -10
-29 -5 0 -10 -6 -10 -13 0 -13 -52 -57 -66 -57 -9 0 -54 -49 -54 -59 0 -5 11
-16 25 -25 28 -18 47 -13 79 23 11 12 23 21 28 21 5 0 26 12 49 27 42 27 47
50 11 45 -12 -2 -22 0 -22 3 0 26 34 131 45 139 19 15 65 109 65 133 0 10 5
24 11 30 5 5 13 36 16 67 5 46 3 56 -9 56 -9 0 -18 -13 -22 -30z"/>
<path d="M3761 6188 c-1 -9 -11 -18 -23 -20 -19 -2 -26 -17 -45 -83 -13 -44
-22 -88 -19 -97 3 -15 -2 -18 -29 -18 -47 0 -51 -15 -16 -56 17 -19 31 -46 31
-59 0 -28 61 -153 87 -177 10 -10 31 -31 48 -47 32 -33 116 -67 183 -74 51 -6
55 8 10 43 -53 42 -98 92 -104 117 -4 12 -9 23 -14 23 -4 0 -12 10 -18 23 -10
20 -11 18 -11 -20 -1 -23 4 -45 9 -48 6 -3 10 -13 10 -21 0 -22 -44 -17 -66 9
-41 46 -54 78 -73 184 -16 92 -17 112 -6 139 7 17 16 50 20 73 4 23 14 55 22
71 8 17 12 36 10 43 -3 7 -6 5 -6 -5z"/>
<path d="M1939 6012 c-3 -68 4 -242 11 -267 5 -16 14 -49 21 -72 7 -24 16 -43
21 -43 4 0 8 -5 8 -11 0 -16 68 -79 85 -79 8 0 15 -4 15 -9 0 -13 90 -55 98
-46 4 4 0 10 -8 13 -21 6 -140 133 -140 149 0 7 -4 13 -9 13 -12 0 -18 29 -31
155 -7 61 -19 131 -27 157 -15 47 -42 72 -44 40z"/>
<path d="M3310 5933 c0 -16 7 -41 15 -57 8 -15 15 -35 15 -44 0 -9 14 -30 31
-48 17 -18 34 -47 38 -65 4 -19 16 -38 27 -44 17 -9 19 -13 8 -23 -7 -6 -18
-12 -23 -12 -27 0 -17 -22 22 -49 46 -31 151 -59 181 -48 29 11 14 40 -29 55
-109 38 -146 65 -110 78 23 9 19 51 -5 57 -11 3 -23 13 -27 24 -10 27 -45 75
-70 96 -13 10 -23 24 -23 32 0 7 -7 15 -15 19 -8 3 -15 17 -15 31 0 14 -4 25
-10 25 -5 0 -10 -12 -10 -27z"/>
<path d="M1823 5928 c-38 -59 -77 -402 -68 -589 7 -134 7 -135 34 -146 14 -6
44 -13 66 -16 22 -3 32 -3 23 -1 -12 4 -18 15 -18 34 0 16 -8 48 -19 72 -28
67 -36 232 -17 349 42 248 45 279 22 298 -11 9 -16 9 -23 -1z"/>
<path d="M4945 5879 c-11 -6 -35 -32 -53 -60 -18 -27 -52 -61 -76 -77 -51 -31
-100 -87 -91 -102 9 -14 195 -13 195 1 0 6 -7 8 -16 5 -13 -5 -53 20 -43 28 2
1 14 9 26 18 29 19 67 70 94 126 30 62 15 86 -36 61z"/>
<path d="M3360 5470 c0 -5 -6 -10 -14 -10 -8 0 -21 -9 -29 -21 -13 -18 -25
-20 -141 -20 -87 1 -141 -4 -174 -15 -48 -15 -113 -45 -122 -55 -3 -3 -22 -18
-43 -34 -21 -15 -45 -41 -52 -55 -8 -15 -26 -31 -40 -34 -14 -4 -25 -13 -25
-21 0 -8 -11 -17 -25 -21 -14 -3 -30 -15 -36 -26 -10 -19 -9 -20 40 -13 38 5
64 2 101 -11 61 -22 85 -43 134 -118 54 -81 95 -126 117 -126 28 0 69 22 69
37 0 7 11 13 24 13 14 0 27 4 30 9 9 14 85 51 106 51 10 0 21 4 24 9 8 13 53
19 68 9 10 -6 7 -14 -14 -33 -16 -13 -28 -28 -28 -33 0 -5 -11 -15 -25 -22
-22 -12 -25 -20 -25 -73 l0 -60 71 5 c39 3 76 11 82 17 6 6 19 11 28 11 33 0
124 34 142 54 25 28 22 39 -33 96 -27 29 -50 55 -50 58 0 4 -14 21 -30 39 -23
24 -30 41 -30 70 0 21 -6 47 -14 58 -19 28 -29 82 -17 90 14 8 14 45 1 45 -16
0 -11 18 11 38 37 35 -1 102 -58 102 -13 0 -23 -4 -23 -10z"/>
<path d="M603 4643 c-39 -4 -63 -23 -28 -23 11 0 15 -11 15 -40 0 -29 -4 -40
-15 -40 -8 0 -15 6 -15 13 0 6 -8 21 -16 32 -15 20 -15 20 -30 1 -30 -42 -10
-206 26 -206 9 0 21 -5 28 -12 8 -8 18 -9 35 -1 13 6 37 8 53 6 28 -6 29 -5
12 14 -10 11 -18 28 -18 38 0 31 24 88 48 113 28 32 28 46 -2 60 -13 6 -27 20
-31 31 -3 12 -9 20 -13 19 -4 -1 -26 -3 -49 -5z"/>
<path d="M1743 3491 c-43 -93 -53 -193 -33 -302 13 -65 47 -139 65 -139 17 0
51 -42 74 -94 10 -23 42 -66 72 -97 98 -101 129 -145 149 -207 11 -34 11 -50
2 -76 -7 -18 -12 -46 -12 -62 0 -71 -92 -190 -274 -353 -21 -18 -44 -48 -52
-67 -15 -36 -19 -114 -6 -114 7 0 28 54 36 91 0 4 37 37 81 75 82 71 183 170
267 262 47 51 47 52 54 141 5 66 3 97 -7 120 -8 17 -17 31 -21 31 -5 0 -8 5
-8 10 0 27 -69 113 -182 228 -101 102 -131 138 -148 182 -47 119 -48 122 -39
190 10 73 28 174 36 208 4 17 1 22 -13 22 -13 0 -26 -17 -41 -49z"/>
<path d="M9676 2984 c-3 -8 -10 -13 -14 -10 -5 3 -19 -6 -32 -19 -20 -21 -24
-40 -31 -132 -4 -60 -13 -135 -19 -168 -12 -64 -7 -140 11 -161 6 -8 28 -14
48 -14 32 0 38 4 56 41 11 23 30 48 42 56 13 9 23 22 23 29 0 8 9 14 20 14 17
0 20 7 20 40 0 27 -4 40 -14 40 -24 0 -48 50 -53 112 -5 50 -3 61 13 73 18 14
18 16 2 28 -11 9 -15 21 -12 34 5 17 -1 25 -24 37 -27 14 -31 14 -36 0z"/>
<path d="M10152 2988 c-7 -7 -12 -19 -12 -27 0 -8 -6 -22 -13 -30 -18 -21 -47
-101 -47 -127 0 -12 -18 -42 -40 -67 -22 -25 -40 -50 -40 -55 0 -16 -27 -22
-96 -22 l-64 0 0 -36 c0 -27 -5 -37 -19 -41 -11 -3 -24 -17 -30 -32 -12 -31
-29 -52 -56 -67 -12 -7 -20 -23 -21 -40 -2 -60 -3 -64 -28 -64 -14 0 -28 -5
-32 -11 -3 -6 -17 -8 -30 -5 -22 6 -24 3 -24 -29 0 -24 5 -35 15 -35 8 0 33
-10 55 -21 l41 -22 -3 -134 c-2 -86 -7 -136 -14 -141 -18 -11 -25 -82 -8 -82
16 0 19 -16 4 -25 -5 -3 -10 -22 -10 -41 0 -26 4 -34 18 -34 15 0 62 -58 62
-78 0 -4 14 -16 30 -25 17 -10 30 -22 30 -28 0 -5 9 -9 20 -9 12 0 20 -7 20
-16 0 -8 14 -29 30 -46 17 -16 30 -33 30 -37 0 -5 29 -21 65 -37 36 -16 65
-32 65 -36 0 -5 7 -8 15 -8 8 0 15 -4 15 -10 0 -5 6 -10 13 -10 8 0 22 -9 31
-19 10 -11 25 -20 34 -20 22 0 44 -5 57 -13 6 -4 38 -9 70 -13 33 -3 80 -8
105 -11 25 -3 56 -6 70 -8 13 -1 38 1 55 5 16 4 56 13 88 20 88 19 138 78 121
143 -3 14 -13 27 -22 31 -9 3 -111 8 -226 11 -300 6 -296 6 -331 74 -22 43
-29 49 -65 55 -22 4 -47 13 -54 21 -8 8 -23 14 -33 14 -31 0 -63 37 -64 73 0
27 -2 29 -9 12 -6 -13 -7 -5 -3 26 4 37 0 56 -22 99 -47 93 -56 128 -49 197 5
47 15 76 40 115 19 29 34 60 34 70 0 10 4 18 9 18 16 0 71 63 71 82 0 10 5 18
10 18 6 0 10 6 10 14 0 25 29 41 51 28 10 -7 39 -12 65 -12 48 0 99 -23 108
-49 3 -9 24 -49 45 -90 27 -52 50 -81 75 -96 19 -12 54 -42 76 -68 23 -26 47
-47 54 -47 7 0 34 -18 59 -40 25 -22 55 -40 66 -40 12 0 21 -6 21 -13 0 -16
32 -33 75 -41 17 -3 53 -26 85 -55 38 -36 62 -51 82 -51 25 0 28 4 28 33 0 40
-39 85 -81 94 -16 3 -29 9 -29 14 0 4 -10 11 -22 14 -34 11 -88 54 -88 71 0 7
-4 14 -9 14 -4 0 -11 16 -14 35 -3 20 -17 49 -31 66 -14 17 -26 35 -26 41 0 5
-17 26 -37 46 -45 44 -93 107 -93 121 0 6 -4 11 -8 11 -5 0 -19 24 -31 53 -13
28 -27 60 -32 69 -5 10 -9 26 -9 36 0 11 -9 27 -20 37 -11 10 -20 23 -20 29 0
7 -16 28 -34 47 -40 41 -64 98 -77 183 -9 61 -27 85 -64 86 -12 0 -26 -5 -33
-12z"/>
<path d="M120 2880 c-40 -17 -42 -19 -17 -19 25 -1 27 -4 27 -41 0 -29 4 -40
15 -40 8 0 15 7 15 15 0 11 11 15 40 15 29 0 40 -4 40 -15 0 -11 11 -15 40
-15 28 0 40 4 40 14 0 8 5 16 11 18 22 7 -1 48 -27 48 -14 0 -24 6 -24 14 0
30 -93 34 -160 6z"/>
<path d="M7876 2849 c3 -5 -4 -9 -15 -9 -17 0 -28 -11 -57 -58 -1 -2 -32 -5
-70 -8 -50 -3 -73 -10 -84 -23 -17 -20 -70 -37 -153 -46 -50 -6 -60 -11 -72
-35 -20 -38 -94 -100 -127 -107 -28 -6 -68 -56 -68 -85 0 -21 -32 -48 -57 -48
-27 0 -73 -37 -73 -59 0 -10 13 -49 28 -87 53 -128 65 -224 27 -224 -18 0 -35
-31 -35 -64 0 -14 -13 -37 -31 -55 l-30 -31 21 -30 c12 -16 26 -30 31 -30 15
0 10 -37 -7 -51 -12 -10 -19 -10 -32 -1 -33 23 -43 24 -63 6 l-21 -19 25 -21
c17 -14 39 -22 67 -22 23 -1 57 -10 76 -21 20 -12 40 -19 45 -16 5 3 18 1 29
-5 17 -9 19 -14 9 -26 -6 -8 -16 -14 -23 -14 -22 0 -96 -35 -96 -46 0 -6 11
-16 25 -22 14 -7 28 -19 31 -27 5 -11 11 -12 25 -5 14 8 40 3 101 -17 62 -21
106 -28 173 -30 380 -8 471 -14 507 -29 40 -18 164 -16 176 2 35 50 139 72
171 36 32 -37 65 -48 136 -48 94 1 125 14 125 51 0 9 4 25 10 35 14 26 -41 50
-119 50 -129 0 -198 33 -169 80 17 26 84 48 131 42 35 -4 37 -3 37 24 -1 23
-13 38 -54 72 -29 23 -56 42 -60 42 -9 0 -56 51 -56 61 0 13 42 37 71 41 14 1
34 -3 43 -11 14 -11 16 -11 16 3 0 9 8 16 20 16 29 0 27 62 -2 103 -49 68 -55
94 -50 222 4 137 -1 152 -62 162 -38 6 -102 58 -200 161 -99 105 -147 152
-155 152 -5 0 -8 12 -6 28 2 15 -1 32 -7 39 -11 14 -111 16 -102 2z"/>
<path d="M1120 2645 c0 -9 -5 -21 -10 -28 -62 -72 -66 -75 -125 -87 -33 -7
-68 -19 -78 -28 -23 -21 -45 -58 -28 -47 7 4 18 1 26 -5 12 -10 20 -9 40 4 13
9 30 16 38 16 7 0 49 17 93 39 82 40 151 107 140 137 -8 21 -96 20 -96 -1z"/>
<path d="M524 2335 c-3 -8 -3 -19 1 -25 4 -6 -4 -10 -19 -10 -22 0 -26 -4 -26
-30 0 -28 -2 -30 -40 -30 -22 0 -40 5 -40 10 0 7 -24 10 -62 8 l-63 -3 -3 -57
-3 -58 146 0 145 0 0 31 0 31 78 -6 c51 -5 86 -14 104 -27 34 -24 38 -24 38 0
0 23 -52 81 -58 63 -7 -21 -31 -14 -25 8 4 14 -2 23 -23 32 -16 7 -45 27 -64
45 -37 35 -77 43 -86 18z"/>
<path d="M1934 1329 c-11 -13 -19 -41 -22 -79 -4 -50 0 -67 23 -111 24 -46 26
-61 24 -133 -2 -65 1 -87 16 -114 11 -17 22 -32 26 -32 3 0 22 -15 41 -32 42
-40 86 -63 160 -83 44 -13 69 -28 112 -70 31 -29 56 -58 56 -63 0 -16 84 -94
115 -108 34 -14 75 -47 75 -60 1 -5 18 -22 38 -39 35 -27 83 -111 133 -232 8
-18 18 -33 24 -33 6 0 16 -9 23 -20 6 -11 28 -26 48 -35 19 -8 33 -19 29 -25
-3 -6 0 -12 7 -14 72 -20 98 -30 98 -38 0 -4 138 -8 306 -8 188 0 303 4 299 9
-3 6 -27 13 -53 16 -163 22 -198 33 -243 74 -80 74 -264 218 -286 225 -13 4
-23 12 -23 17 0 5 -6 9 -14 9 -7 0 -19 7 -26 15 -7 8 -21 15 -32 15 -20 0 -88
64 -88 83 0 5 -10 37 -22 69 -26 72 -48 85 -111 63 -55 -19 -63 -19 -87 5 -11
11 -23 19 -27 19 -5 -1 -17 26 -29 60 -21 62 -29 76 -44 76 -11 0 -79 78 -80
92 0 6 -4 13 -8 15 -5 2 -15 16 -23 32 -8 16 -30 38 -49 49 -51 28 -94 80
-135 166 -21 42 -44 90 -53 106 -8 17 -20 39 -26 51 -11 23 -81 68 -108 70 -9
1 -23 4 -31 7 -8 3 -23 -3 -33 -14z"/>
<path d="M888 764 c-14 -8 -64 -19 -110 -25 -93 -12 -119 -25 -70 -35 18 -4
32 -10 32 -14 0 -9 131 -12 173 -4 15 3 24 10 21 15 -7 13 15 41 27 33 15 -9
10 14 -7 30 -18 19 -30 19 -66 0z"/>
<path d="M9765 650 c-3 -5 -23 -10 -44 -10 l-37 0 -3 -87 c-1 -49 -6 -89 -12
-91 -8 -3 -14 -242 -6 -242 2 0 17 7 34 15 31 16 123 11 123 -6 0 -5 10 -9 21
-9 21 0 21 -4 18 -107 l-4 -108 88 -3 88 -3 -1 93 c-2 103 4 128 29 128 19 0
71 50 71 68 0 7 5 12 11 12 9 0 -11 21 -60 63 -12 9 -26 17 -31 17 -6 0 -10
18 -10 40 0 33 -3 40 -20 40 -13 0 -20 7 -20 20 0 15 -9 21 -40 26 -22 4 -40
10 -40 14 0 4 -9 10 -20 13 -11 3 -20 13 -20 23 0 10 -10 28 -22 41 -12 13
-16 23 -10 23 27 0 9 20 -25 29 -47 13 -50 13 -58 1z"/>
<path d="M5972 358 c-17 -29 -36 -72 -43 -95 -7 -24 -15 -43 -19 -43 -3 0 -12
-17 -19 -37 -16 -44 -72 -98 -119 -114 -18 -6 -30 -14 -27 -19 3 -4 -2 -13
-10 -20 -8 -7 -15 -17 -15 -21 0 -6 64 -8 148 -7 l147 3 22 45 c12 25 27 50
33 57 5 7 10 27 10 46 0 18 5 38 11 44 7 7 10 41 8 91 -4 71 -7 82 -29 101
-42 35 -65 27 -98 -31z"/>
</g>
</svg>
