{
	"asset":{
		"generator":"Khronos glTF Blender I/O v4.4.56",
		"version":"2.0"
	},
	"scene":0,
	"scenes":[
		{
			"name":"Scene",
			"nodes":[
				0
			]
		}
	],
	"nodes":[
		{
			"mesh":0,
			"name":"Cube",
			"translation":[
				1.0286784172058105,
				0.0623471736907959,
				-0.036738812923431396
			]
		}
	],
	"materials":[
		{
			"doubleSided":true,
			"name":"POL",
			"pbrMetallicRoughness":{
				"metallicFactor":0,
				"roughnessFactor":0.5
			}
		},
		{
			"doubleSided":true,
			"name":"RM",
			"pbrMetallicRoughness":{
				"metallicFactor":0,
				"roughnessFactor":0.5
			}
		},
		{
			"doubleSided":true,
			"name":"RM2",
			"pbrMetallicRoughness":{
				"metallicFactor":0,
				"roughnessFactor":0.5
			}
		},
		{
			"doubleSided":true,
			"name":"pOTOLOK",
			"pbrMetallicRoughness":{
				"metallicFactor":0,
				"roughnessFactor":0.5
			}
		},
		{
			"doubleSided":true,
			"name":"Material.030",
			"pbrMetallicRoughness":{
				"baseColorFactor":[
					0.800000011920929,
					0.800000011920929,
					0.800000011920929,
					1
				],
				"metallicFactor":0,
				"roughnessFactor":0.5
			}
		}
	],
	"meshes":[
		{
			"name":"Cube.002",
			"primitives":[
				{
					"attributes":{
						"POSITION":0,
						"NORMAL":1,
						"TEXCOORD_0":2
					},
					"indices":3,
					"material":0
				},
				{
					"attributes":{
						"POSITION":4,
						"NORMAL":5,
						"TEXCOORD_0":6
					},
					"indices":7,
					"material":1
				},
				{
					"attributes":{
						"POSITION":8,
						"NORMAL":9,
						"TEXCOORD_0":10
					},
					"indices":11,
					"material":2
				},
				{
					"attributes":{
						"POSITION":12,
						"NORMAL":13,
						"TEXCOORD_0":14
					},
					"indices":15,
					"material":3
				},
				{
					"attributes":{
						"POSITION":16,
						"NORMAL":17,
						"TEXCOORD_0":18
					},
					"indices":19,
					"material":4
				}
			]
		}
	],
	"accessors":[
		{
			"bufferView":0,
			"componentType":5126,
			"count":353,
			"max":[
				-0.012126684188842773,
				2.2492682933807373,
				6.771592140197754
			],
			"min":[
				-6.993649482727051,
				-0.08234716951847076,
				-7.333832263946533
			],
			"type":"VEC3"
		},
		{
			"bufferView":1,
			"componentType":5126,
			"count":353,
			"type":"VEC3"
		},
		{
			"bufferView":2,
			"componentType":5126,
			"count":353,
			"type":"VEC2"
		},
		{
			"bufferView":3,
			"componentType":5123,
			"count":756,
			"type":"SCALAR"
		},
		{
			"bufferView":4,
			"componentType":5126,
			"count":237,
			"max":[
				0.007873267866671085,
				2.437652826309204,
				2.6867802143096924
			],
			"min":[
				-5.41506814956665,
				-0.0623471736907959,
				-1.4371943473815918
			],
			"type":"VEC3"
		},
		{
			"bufferView":5,
			"componentType":5126,
			"count":237,
			"type":"VEC3"
		},
		{
			"bufferView":6,
			"componentType":5126,
			"count":237,
			"type":"VEC2"
		},
		{
			"bufferView":7,
			"componentType":5123,
			"count":579,
			"type":"SCALAR"
		},
		{
			"bufferView":8,
			"componentType":5126,
			"count":144,
			"max":[
				-0.49501729011535645,
				2.437652826309204,
				6.771592140197754
			],
			"min":[
				-4.076855659484863,
				-0.0623471736907959,
				-5.112265586853027
			],
			"type":"VEC3"
		},
		{
			"bufferView":9,
			"componentType":5126,
			"count":144,
			"type":"VEC3"
		},
		{
			"bufferView":10,
			"componentType":5126,
			"count":144,
			"type":"VEC2"
		},
		{
			"bufferView":11,
			"componentType":5123,
			"count":432,
			"type":"SCALAR"
		},
		{
			"bufferView":12,
			"componentType":5126,
			"count":405,
			"max":[
				-0.47966545820236206,
				2.437652826309204,
				7.29542875289917
			],
			"min":[
				-6.993649482727051,
				-0.06391483545303345,
				-7.333832263946533
			],
			"type":"VEC3"
		},
		{
			"bufferView":13,
			"componentType":5126,
			"count":405,
			"type":"VEC3"
		},
		{
			"bufferView":14,
			"componentType":5126,
			"count":405,
			"type":"VEC2"
		},
		{
			"bufferView":15,
			"componentType":5123,
			"count":843,
			"type":"SCALAR"
		},
		{
			"bufferView":16,
			"componentType":5126,
			"count":1446,
			"max":[
				0.007873293943703175,
				2.4825520515441895,
				7.29542875289917
			],
			"min":[
				-7.007846355438232,
				-0.08234716951847076,
				-7.333832263946533
			],
			"type":"VEC3"
		},
		{
			"bufferView":17,
			"componentType":5126,
			"count":1446,
			"type":"VEC3"
		},
		{
			"bufferView":18,
			"componentType":5126,
			"count":1446,
			"type":"VEC2"
		},
		{
			"bufferView":19,
			"componentType":5123,
			"count":2670,
			"type":"SCALAR"
		}
	],
	"bufferViews":[
		{
			"buffer":0,
			"byteLength":4236,
			"byteOffset":0,
			"target":34962
		},
		{
			"buffer":0,
			"byteLength":4236,
			"byteOffset":4236,
			"target":34962
		},
		{
			"buffer":0,
			"byteLength":2824,
			"byteOffset":8472,
			"target":34962
		},
		{
			"buffer":0,
			"byteLength":1512,
			"byteOffset":11296,
			"target":34963
		},
		{
			"buffer":0,
			"byteLength":2844,
			"byteOffset":12808,
			"target":34962
		},
		{
			"buffer":0,
			"byteLength":2844,
			"byteOffset":15652,
			"target":34962
		},
		{
			"buffer":0,
			"byteLength":1896,
			"byteOffset":18496,
			"target":34962
		},
		{
			"buffer":0,
			"byteLength":1158,
			"byteOffset":20392,
			"target":34963
		},
		{
			"buffer":0,
			"byteLength":1728,
			"byteOffset":21552,
			"target":34962
		},
		{
			"buffer":0,
			"byteLength":1728,
			"byteOffset":23280,
			"target":34962
		},
		{
			"buffer":0,
			"byteLength":1152,
			"byteOffset":25008,
			"target":34962
		},
		{
			"buffer":0,
			"byteLength":864,
			"byteOffset":26160,
			"target":34963
		},
		{
			"buffer":0,
			"byteLength":4860,
			"byteOffset":27024,
			"target":34962
		},
		{
			"buffer":0,
			"byteLength":4860,
			"byteOffset":31884,
			"target":34962
		},
		{
			"buffer":0,
			"byteLength":3240,
			"byteOffset":36744,
			"target":34962
		},
		{
			"buffer":0,
			"byteLength":1686,
			"byteOffset":39984,
			"target":34963
		},
		{
			"buffer":0,
			"byteLength":17352,
			"byteOffset":41672,
			"target":34962
		},
		{
			"buffer":0,
			"byteLength":17352,
			"byteOffset":59024,
			"target":34962
		},
		{
			"buffer":0,
			"byteLength":11568,
			"byteOffset":76376,
			"target":34962
		},
		{
			"buffer":0,
			"byteLength":5340,
			"byteOffset":87944,
			"target":34963
		}
	],
	"buffers":[
		{
			"byteLength":93284,
			"uri":"korobka.bin"
		}
	]
}
